<svg width="12" height="12" viewBox="0 0 12 12" fill="none" xmlns="http://www.w3.org/2000/svg">
<g clip-path="url(#clip0_50_11)">
<path d="M6.26338 8.49657L9.21537 5.52922L6.26338 2.56187C6.23672 2.52686 6.20285 2.49799 6.16406 2.47721C6.12527 2.45643 6.08246 2.44422 6.03855 2.44142C5.99463 2.43862 5.95063 2.44528 5.90951 2.46097C5.8684 2.47665 5.83113 2.50099 5.80024 2.53232C5.76934 2.56366 5.74554 2.60127 5.73045 2.64261C5.71535 2.68394 5.70932 2.72804 5.71274 2.77191C5.71617 2.81578 5.72899 2.85841 5.75032 2.89689C5.77166 2.93538 5.80101 2.96884 5.8364 2.995L8.04502 5.22204H2.16868C2.08721 5.22204 2.00908 5.25441 1.95147 5.31201C1.89386 5.36962 1.8615 5.44775 1.8615 5.52922C1.8615 5.61069 1.89386 5.68882 1.95147 5.74643C2.00908 5.80404 2.08721 5.8364 2.16868 5.8364H8.04502L5.8364 8.06345C5.77896 8.12129 5.74686 8.19958 5.74715 8.2811C5.74743 8.36261 5.78009 8.44067 5.83793 8.49811C5.89578 8.55554 5.97407 8.58765 6.05558 8.58736C6.1371 8.58707 6.21516 8.55442 6.27259 8.49657H6.26338Z" fill="black"/>
</g>
<defs>
<clipPath id="clip0_50_11">
<rect width="11.0584" height="11.0584" fill="white" transform="matrix(0 1 -1 0 11.0584 0)"/>
</clipPath>
</defs>
</svg>
