<svg width="17" height="17" viewBox="0 0 17 17" fill="none" xmlns="http://www.w3.org/2000/svg">
<path d="M15.3266 4.07733L8.91172 0.385144C8.80547 0.318738 8.65937 0.292175 8.5 0.292175C8.34062 0.292175 8.19453 0.332019 8.08828 0.385144L1.71328 4.09061C1.4875 4.22343 1.32812 4.55546 1.32812 4.8078V12.2055C1.32812 12.3516 1.35469 12.5242 1.46094 12.6703L15.6453 4.43593C15.5656 4.27655 15.4461 4.15702 15.3266 4.07733Z" fill="#9B4F96"/>
<path d="M1.42109 12.657C1.4875 12.7633 1.58047 12.8563 1.67344 12.9094L8.075 16.6149C8.18125 16.6813 8.32734 16.7078 8.48672 16.7078C8.64609 16.7078 8.79219 16.668 8.89844 16.6149L15.2734 12.9094C15.4992 12.7766 15.6586 12.4445 15.6586 12.1922V4.79454C15.6586 4.67501 15.6453 4.5422 15.5789 4.42267L1.42109 12.657Z" fill="#68217A"/>
<path d="M11.3289 10.107C10.7711 11.0898 9.70859 11.7539 8.5 11.7539C6.70703 11.7539 5.24609 10.293 5.24609 8.5C5.24609 6.70703 6.70703 5.24609 8.5 5.24609C9.70859 5.24609 10.7711 5.91016 11.3289 6.90625L13.0555 5.91016C12.1523 4.32969 10.4523 3.25391 8.5 3.25391C5.60469 3.25391 3.25391 5.60469 3.25391 8.5C3.25391 11.3953 5.60469 13.7461 8.5 13.7461C10.4391 13.7461 12.1391 12.6836 13.0422 11.1164L11.3289 10.107ZM12.8828 8.79219L13.0023 8.22109H12.4445V7.59688H13.1219L13.2812 6.77344H13.932L13.7727 7.58359H14.2773L14.4367 6.77344H15.0742L14.9148 7.58359H15.2336V8.20781H14.7953L14.6758 8.77891H15.2336V9.40313H14.5562L14.3969 10.2H13.7461L13.9055 9.40313H13.4008L13.2414 10.2H12.6039L12.7633 9.40313H12.4445V8.77891H12.8828V8.79219ZM13.5203 8.79219H14.025L14.1445 8.22109H13.6398L13.5203 8.79219Z" fill="white"/>
</svg>
