<svg width="17" height="17" viewBox="0 0 17 17" fill="none" xmlns="http://www.w3.org/2000/svg">
<g clip-path="url(#clip0_30_54)">
<path d="M16.5666 7.7533L9.24654 0.43347C8.82526 0.0119229 8.14154 0.0119229 7.7196 0.43347L6.19969 1.95364L8.12786 3.88181C8.5761 3.73054 9.08982 3.83201 9.44695 4.18914C9.80595 4.54853 9.90662 5.06663 9.75163 5.51634L11.6099 7.37478C12.0595 7.21979 12.5784 7.31993 12.9373 7.67959C13.4393 8.18122 13.4393 8.99443 12.9373 9.49633C12.818 9.61569 12.6763 9.71038 12.5204 9.77498C12.3645 9.83958 12.1974 9.87283 12.0286 9.87283C11.8599 9.87283 11.6928 9.83958 11.5369 9.77498C11.3809 9.71038 11.2393 9.61569 11.12 9.49633C10.9408 9.31695 10.8186 9.08858 10.7689 8.83995C10.7192 8.59132 10.744 8.33353 10.8404 8.09901L9.10749 6.36607L9.10722 10.927C9.23296 10.9889 9.34776 11.0709 9.44709 11.1698C9.94885 11.6714 9.94885 12.4843 9.44709 12.987C8.94519 13.4887 8.13171 13.4887 7.63035 12.987C7.12858 12.4845 7.12858 11.6715 7.63035 11.1698C7.75067 11.0495 7.89363 10.9543 8.05096 10.8895V6.28638C7.89345 6.22194 7.75043 6.12661 7.63035 6.00602C7.25024 5.62617 7.15873 5.06836 7.3537 4.60139L5.45275 2.70045L0.433502 7.71943C0.231005 7.92199 0.117249 8.19668 0.117249 8.4831C0.117249 8.76952 0.231005 9.04421 0.433502 9.24677L7.75373 16.5666C8.17528 16.9881 8.85873 16.9881 9.28094 16.5666L16.5668 9.28077C16.7692 9.07816 16.8829 8.80344 16.8829 8.51701C16.8829 8.23058 16.7691 7.95588 16.5666 7.7533Z" fill="#F34F29"/>
</g>
<defs>
<clipPath id="clip0_30_54">
<rect width="17" height="17" fill="white"/>
</clipPath>
</defs>
</svg>
