<svg width="17" height="17" viewBox="0 0 17 17" fill="none" xmlns="http://www.w3.org/2000/svg">
<path d="M2.49873 15.157L1.16344 0.179565H15.8366L14.4999 15.1547L8.4911 16.8206L2.49873 15.157Z" fill="#1572B6"/>
<path d="M8.50013 15.5473L13.3556 14.2011L14.4979 1.40411H8.50013V15.5473Z" fill="#33A9DC"/>
<path d="M8.50013 6.83044H10.9309L11.0987 4.94942H8.50013V3.11249H13.1063L13.0622 3.60535L12.6107 8.66737H8.50013V6.83044Z" fill="white"/>
<path d="M8.51102 11.601L8.50292 11.6034L6.45721 11.0511L6.32639 9.586H4.48269L4.73995 12.4703L8.50266 13.5146L8.51102 13.5122V11.601Z" fill="#EBEBEB"/>
<path d="M10.7747 8.58966L10.5534 11.0496L8.50465 11.6026V13.5138L12.2704 12.4702L12.298 12.1598L12.6176 8.58966H10.7747Z" fill="white"/>
<path d="M8.50637 3.11249V4.94942H4.06937L4.03259 4.53664L3.94891 3.60536L3.90495 3.11249H8.50637ZM8.50013 6.83071V8.66764H6.48019L6.4434 8.25486L6.35959 7.32357L6.31577 6.83071H8.50013Z" fill="#EBEBEB"/>
</svg>
