<svg width="17" height="17" viewBox="0 0 17 17" fill="none" xmlns="http://www.w3.org/2000/svg">
<path d="M2.52835 15.1241L1.19956 0.220581H15.8004L14.4702 15.1219L8.4911 16.7794L2.52835 15.1241Z" fill="#E44D26"/>
<path d="M8.5 15.5125L13.3315 14.1729L14.4682 1.43915H8.5V15.5125Z" fill="#F16529"/>
<path d="M8.5 6.96665H6.08122L5.91414 5.09479H8.5V3.26703H3.91651L3.96034 3.75737L4.40951 8.79455H8.5V6.96665ZM8.5 11.7138L8.4919 11.716L6.45628 11.1662L6.32626 9.70857H4.49119L4.74725 12.5785L8.49163 13.6179L8.5 13.6156V11.7138Z" fill="#EBEBEB"/>
<path d="M8.49363 6.96665V8.79455H10.7444L10.5323 11.1651L8.49363 11.7154V13.6171L12.2409 12.5785L12.2684 12.2697L12.6979 7.45753L12.7424 6.96665H12.25H8.49363ZM8.49363 3.26703V5.09479H12.9088L12.9455 4.68414L13.0289 3.75737L13.0726 3.26703H8.49363Z" fill="white"/>
</svg>
