<svg width="16" height="16" viewBox="0 0 16 16" fill="none" xmlns="http://www.w3.org/2000/svg">
<g clip-path="url(#clip0_44_11)">
<path d="M16.9625 12.0764C16.7761 11.8779 16.1179 11.2907 14.9078 10.5139C13.6889 9.73031 12.7899 9.24173 12.5321 9.1278C12.5093 9.11772 12.4843 9.11402 12.4596 9.11711C12.435 9.12019 12.4116 9.12994 12.3921 9.1453C11.9767 9.46924 11.2774 10.0642 11.2399 10.0964C10.9977 10.3039 10.9977 10.3039 10.7995 10.2393C10.4509 10.125 9.36805 9.54995 8.42446 8.60422C7.48086 7.65849 6.8762 6.54882 6.76191 6.2006C6.69655 6.00203 6.69655 6.00203 6.90477 5.75988C6.93692 5.72238 7.53229 5.02308 7.85623 4.60807C7.87159 4.58853 7.88134 4.56517 7.88442 4.5405C7.8875 4.51583 7.88381 4.49079 7.87373 4.46807C7.7598 4.20985 7.27121 3.31126 6.48762 2.09231C5.70974 0.882643 5.1233 0.224417 4.92472 0.0379845C4.9065 0.0207888 4.88397 0.0088265 4.85952 0.00335809C4.83507 -0.00211033 4.8096 -0.00088235 4.78579 0.0069125C4.09166 0.245458 3.42193 0.549825 2.78573 0.915858C2.17158 1.27287 1.59015 1.6834 1.04819 2.14267C1.02927 2.15875 1.01509 2.17968 1.00716 2.20321C0.999231 2.22674 0.997858 2.25199 1.00319 2.27624C1.07783 2.6241 1.43463 4.07628 2.5418 6.08774C3.67147 8.14064 4.45435 9.19244 6.11332 10.8457C7.7723 12.4989 8.85732 13.329 10.9124 14.4586C12.9239 15.5658 14.3768 15.9229 14.7239 15.9969C14.7482 16.0021 14.7735 16.0007 14.7971 15.9928C14.8207 15.9849 14.8417 15.9707 14.8578 15.9519C15.317 15.4099 15.7274 14.8285 16.0843 14.2143C16.4503 13.5781 16.7546 12.9084 16.9933 12.2143C17.0009 12.1907 17.0021 12.1654 16.9967 12.1412C16.9913 12.1169 16.9795 12.0946 16.9625 12.0764Z" fill="#FFFBFE"/>
</g>
<defs>
<clipPath id="clip0_44_11">
<rect width="16" height="16" fill="white"/>
</clipPath>
</defs>
</svg>
