<svg width="17" height="17" viewBox="0 0 17 17" fill="none" xmlns="http://www.w3.org/2000/svg">
<path d="M6.98417 1.41669C6.44688 1.41669 5.9316 1.63012 5.55169 2.01004C5.17177 2.38996 4.95833 2.90524 4.95833 3.44252V4.63252H7.99708C8.27333 4.63252 8.5 5.03627 8.5 5.31252H3.4425C2.90522 5.31252 2.38994 5.52596 2.01002 5.90587C1.6301 6.28579 1.41667 6.80107 1.41667 7.33835V10.0166C1.41667 10.5538 1.6301 11.0691 2.01002 11.449C2.38994 11.829 2.90522 12.0424 3.4425 12.0424H4.27833V10.1441C4.2774 9.87836 4.32893 9.61509 4.42996 9.36934C4.531 9.1236 4.67955 8.90022 4.8671 8.71201C5.05465 8.5238 5.27751 8.37447 5.5229 8.27257C5.76829 8.17068 6.03138 8.11823 6.29708 8.11823H10.0158C11.135 8.11823 12.0417 7.21794 12.0417 6.09877V3.44252C12.0417 2.90524 11.8282 2.38996 11.4483 2.01004C11.0684 1.63012 10.5531 1.41669 10.0158 1.41669H6.98417ZM6.47417 2.5571C6.7575 2.5571 6.98417 2.6421 6.98417 3.06002C6.98417 3.47794 6.7575 3.69115 6.47417 3.69115C6.19792 3.69115 5.97125 3.47865 5.97125 3.06073C5.97125 2.64281 6.19792 2.5571 6.47417 2.5571Z" fill="#0288D1"/>
<path d="M12.721 4.95831V6.85665C12.7218 7.12229 12.6702 7.38548 12.5691 7.63115C12.468 7.87681 12.3195 8.10011 12.1319 8.28824C11.9444 8.47638 11.7216 8.62565 11.4762 8.7275C11.2309 8.82935 10.9679 8.88177 10.7022 8.88177H6.98417C6.71846 8.88084 6.45519 8.93237 6.20945 9.0334C5.9637 9.13444 5.74032 9.28299 5.55211 9.47054C5.3639 9.65809 5.21457 9.88095 5.11268 10.1263C5.01078 10.3717 4.95833 10.6348 4.95833 10.9005V13.5568C4.95833 14.0941 5.17177 14.6093 5.55168 14.9893C5.9316 15.3692 6.44688 15.5826 6.98417 15.5826H10.0158C10.553 15.5826 11.0682 15.3693 11.4481 14.9895C11.828 14.6097 12.0415 14.0946 12.0417 13.5575V12.3675H9.00221C8.72596 12.3675 8.5 11.9637 8.5 11.6875H13.5575C14.0948 11.6875 14.6101 11.474 14.99 11.0941C15.3699 10.7142 15.5833 10.1989 15.5833 9.66165V6.98415C15.5833 6.44686 15.3699 5.93158 14.99 5.55167C14.6101 5.17175 14.0948 4.95831 13.5575 4.95831H12.721ZM5.89333 8.15502L5.8905 8.15785L5.91742 8.15502H5.89333ZM10.5258 13.3089C10.8021 13.3089 11.0287 13.5214 11.0287 13.9393C11.0287 14.0053 11.0157 14.0707 10.9905 14.1317C10.9652 14.1927 10.9281 14.2482 10.8814 14.2949C10.8347 14.3416 10.7793 14.3786 10.7183 14.4039C10.6573 14.4292 10.5919 14.4422 10.5258 14.4422C10.2425 14.4422 10.0158 14.3572 10.0158 13.9393C10.0158 13.5214 10.2425 13.3089 10.5258 13.3089Z" fill="#FDD835"/>
</svg>
