<svg width="17" height="17" viewBox="0 0 17 17" fill="none" xmlns="http://www.w3.org/2000/svg">
<path d="M6.375 2.125H8.5V6.375H6.375C5.81141 6.375 5.27091 6.15112 4.8724 5.7526C4.47388 5.35409 4.25 4.81359 4.25 4.25C4.25 3.68641 4.47388 3.14591 4.8724 2.7474C5.27091 2.34888 5.81141 2.125 6.375 2.125Z" fill="#F4511E"/>
<path d="M10.625 6.375H8.5V2.125H10.625C11.1886 2.125 11.7291 2.34888 12.1276 2.7474C12.5261 3.14591 12.75 3.68641 12.75 4.25C12.75 4.81359 12.5261 5.35409 12.1276 5.7526C11.7291 6.15112 11.1886 6.375 10.625 6.375Z" fill="#FF8A65"/>
<path d="M8.5 8.5C8.5 9.67361 9.45139 10.625 10.625 10.625C11.7986 10.625 12.75 9.67361 12.75 8.5C12.75 7.32639 11.7986 6.375 10.625 6.375C9.45139 6.375 8.5 7.32639 8.5 8.5Z" fill="#29B6F6"/>
<path d="M6.375 6.375H8.5V10.625H6.375C5.81141 10.625 5.27091 10.4011 4.8724 10.0026C4.47388 9.60409 4.25 9.06359 4.25 8.5C4.25 7.93641 4.47388 7.39591 4.8724 6.9974C5.27091 6.59888 5.81141 6.375 6.375 6.375Z" fill="#7C4DFF"/>
<path d="M6.375 10.625H8.5V12.75C8.5 13.3136 8.27612 13.8541 7.8776 14.2526C7.47909 14.6511 6.93859 14.875 6.375 14.875C5.81141 14.875 5.27091 14.6511 4.8724 14.2526C4.47388 13.8541 4.25 13.3136 4.25 12.75C4.25 12.1864 4.47388 11.6459 4.8724 11.2474C5.27091 10.8489 5.81141 10.625 6.375 10.625Z" fill="#00E676"/>
</svg>
