<svg width="20" height="20" viewBox="0 0 20 20" fill="none" xmlns="http://www.w3.org/2000/svg">
<g clip-path="url(#clip0_44_8)">
<path d="M0 1.41355C0 0.632767 0.648802 0 1.44932 0H18.2861C19.0866 0 19.7354 0.632767 19.7354 1.41355V18.3219C19.7354 19.1027 19.0866 19.7354 18.2861 19.7354H1.44932C0.648802 19.7354 0 19.1027 0 18.3219V1.41355ZM6.09701 16.521V7.60924H3.13547V16.521H6.09701ZM4.61686 6.39181C5.64927 6.39181 6.2919 5.70847 6.2919 4.85245C6.2734 3.97792 5.6505 3.31309 4.63659 3.31309C3.62269 3.31309 2.96031 3.97916 2.96031 4.85245C2.96031 5.70847 3.60295 6.39181 4.59712 6.39181H4.61686ZM10.6707 16.521V11.544C10.6707 11.2776 10.6904 11.0111 10.7694 10.8212C10.9828 10.2896 11.47 9.7382 12.289 9.7382C13.3609 9.7382 13.7889 10.5548 13.7889 11.7537V16.521H16.7504V11.4095C16.7504 8.67126 15.29 7.39832 13.3412 7.39832C11.7697 7.39832 11.0654 8.26175 10.6707 8.86984V8.90068H10.651L10.6707 8.86984V7.60924H7.71039C7.74739 8.44553 7.71039 16.521 7.71039 16.521H10.6707Z" fill="#FFFBFE"/>
</g>
<defs>
<clipPath id="clip0_44_8">
<rect width="19.7354" height="19.7354" fill="white"/>
</clipPath>
</defs>
</svg>
