<svg width="18" height="18" viewBox="0 0 18 18" fill="none" xmlns="http://www.w3.org/2000/svg">
<path fill-rule="evenodd" clip-rule="evenodd" d="M9 1.5C6.963 1.5 6.708 1.509 5.90775 1.545C5.10975 1.58175 4.5645 1.7085 4.0875 1.89375C3.58685 2.08186 3.1333 2.37698 2.7585 2.7585C2.37698 3.1333 2.08186 3.58685 1.89375 4.0875C1.7085 4.5645 1.58175 5.10975 1.545 5.90775C1.50825 6.708 1.5 6.963 1.5 9C1.5 11.037 1.50825 11.292 1.545 12.0922C1.58175 12.8902 1.7085 13.4355 1.89375 13.9125C2.08186 14.4131 2.37698 14.8667 2.7585 15.2415C3.1333 15.623 3.58685 15.9181 4.0875 16.1063C4.5645 16.2915 5.10975 16.4183 5.90775 16.455C6.708 16.491 6.963 16.5 9 16.5C11.037 16.5 11.292 16.491 12.0922 16.455C12.8902 16.4183 13.4355 16.2915 13.9125 16.1063C14.4131 15.9181 14.8667 15.623 15.2415 15.2415C15.623 14.8667 15.9181 14.4131 16.1063 13.9125C16.2915 13.4355 16.4183 12.8902 16.455 12.0922C16.491 11.292 16.5 11.037 16.5 9C16.5 6.963 16.491 6.708 16.455 5.90775C16.4183 5.10975 16.2915 4.5645 16.1063 4.0875C15.9181 3.58685 15.623 3.1333 15.2415 2.7585C14.8667 2.37698 14.4131 2.08186 13.9125 1.89375C13.4355 1.7085 12.8902 1.58175 12.0922 1.545C11.292 1.509 11.037 1.5 9 1.5ZM9 2.8515C11.0025 2.8515 11.2395 2.859 12.03 2.895C12.762 2.92875 13.1588 3.05025 13.4235 3.153C13.773 3.2895 14.0235 3.45225 14.286 3.714C14.5485 3.9765 14.7105 4.227 14.847 4.5765C14.949 4.84125 15.072 5.238 15.105 5.96925C15.141 6.7605 15.1485 6.99675 15.1485 9C15.1485 11.0025 15.141 11.2395 15.105 12.03C15.0712 12.762 14.949 13.1588 14.847 13.4235C14.7268 13.7493 14.5351 14.044 14.286 14.286C14.0235 14.5485 13.773 14.7105 13.4235 14.847C13.1588 14.949 12.762 15.072 12.0308 15.105C11.2403 15.141 11.0033 15.1485 9 15.1485C6.9975 15.1485 6.75975 15.141 5.97 15.105C5.238 15.0712 4.84125 14.949 4.5765 14.847C4.25071 14.7268 3.956 14.5351 3.714 14.286C3.46493 14.044 3.27324 13.7493 3.153 13.4235C3.05025 13.1588 2.928 12.762 2.895 12.0308C2.859 11.2395 2.8515 11.0033 2.8515 9C2.8515 6.9975 2.859 6.7605 2.895 5.97C2.92875 5.238 3.05025 4.84125 3.153 4.5765C3.2895 4.227 3.45225 3.9765 3.714 3.714C3.9765 3.4515 4.227 3.2895 4.5765 3.153C4.84125 3.05025 5.238 2.928 5.96925 2.895C6.7605 2.859 6.99675 2.8515 9 2.8515ZM9 11.4998C8.33703 11.4998 7.7012 11.2364 7.23241 10.7676C6.76362 10.2988 6.50025 9.66298 6.50025 9C6.50025 8.33703 6.76362 7.7012 7.23241 7.23241C7.7012 6.76362 8.33703 6.50025 9 6.50025C9.66298 6.50025 10.2988 6.76362 10.7676 7.23241C11.2364 7.7012 11.4998 8.33703 11.4998 9C11.4998 9.66298 11.2364 10.2988 10.7676 10.7676C10.2988 11.2364 9.66298 11.4998 9 11.4998ZM9 5.14875C8.49425 5.14875 7.99345 5.24837 7.52619 5.44191C7.05894 5.63545 6.63438 5.91913 6.27675 6.27676C5.91913 6.63438 5.63545 7.05894 5.44191 7.52619C5.24837 7.99345 5.14875 8.49425 5.14875 9C5.14875 9.50575 5.24837 10.0066 5.44191 10.4738C5.63545 10.9411 5.91913 11.3656 6.27675 11.7232C6.63438 12.0809 7.05894 12.3645 7.52619 12.5581C7.99345 12.7516 8.49425 12.8513 9 12.8512C10.0214 12.8512 11.001 12.4455 11.7232 11.7232C12.4455 11.001 12.8512 10.0214 12.8512 9C12.8512 7.97859 12.4455 6.999 11.7232 6.27676C11.001 5.55451 10.0214 5.14875 9 5.14875ZM13.9035 4.9965C13.9035 5.11469 13.8802 5.23172 13.835 5.34092C13.7898 5.45011 13.7235 5.54932 13.6399 5.6329C13.5563 5.71647 13.4571 5.78276 13.3479 5.82799C13.2387 5.87322 13.1217 5.8965 13.0035 5.8965C12.8853 5.8965 12.7683 5.87322 12.6591 5.82799C12.5499 5.78276 12.4507 5.71647 12.3671 5.6329C12.2835 5.54932 12.2172 5.45011 12.172 5.34092C12.1268 5.23172 12.1035 5.11469 12.1035 4.9965C12.1035 4.75781 12.1983 4.52889 12.3671 4.3601C12.5359 4.19132 12.7648 4.0965 13.0035 4.0965C13.2422 4.0965 13.4711 4.19132 13.6399 4.3601C13.8087 4.52889 13.9035 4.75781 13.9035 4.9965Z" fill="#FFFBFE"/>
</svg>
