<svg width="16" height="16" viewBox="0 0 16 16" fill="none" xmlns="http://www.w3.org/2000/svg">
<path d="M8 4.74999V9.94999L10.1 11.2333L9.55 8.83332L11.4 7.23332L8.96666 7.01665L8 4.74999ZM8 10.7347L5.58 12.196C5.50889 12.2311 5.44289 12.2453 5.382 12.2387C5.32155 12.2315 5.26266 12.2107 5.20533 12.176C5.14755 12.1404 5.104 12.0902 5.07466 12.0253C5.04533 11.9604 5.04266 11.8895 5.06666 11.8127L5.71066 9.07266L3.58066 7.22599C3.52066 7.1771 3.48111 7.11866 3.462 7.05066C3.44288 6.98266 3.44711 6.91754 3.47466 6.85532C3.50222 6.7931 3.53888 6.74199 3.58466 6.70199C3.63088 6.66332 3.69311 6.6371 3.77133 6.62332L6.582 6.37799L7.678 3.78332C7.70822 3.70999 7.75177 3.6571 7.80866 3.62466C7.86555 3.59221 7.92933 3.57599 8 3.57599C8.07066 3.57599 8.13466 3.59221 8.192 3.62466C8.24933 3.6571 8.29266 3.70999 8.322 3.78332L9.418 6.37799L12.228 6.62332C12.3067 6.63666 12.3691 6.6631 12.4153 6.70266C12.4616 6.74177 12.4984 6.79266 12.526 6.85532C12.5531 6.91754 12.5571 6.98266 12.538 7.05066C12.5189 7.11866 12.4793 7.1771 12.4193 7.22599L10.2893 9.07266L10.9333 11.8127C10.9582 11.8887 10.9558 11.9593 10.926 12.0247C10.8962 12.09 10.8524 12.1402 10.7947 12.1753C10.7378 12.2109 10.6789 12.232 10.618 12.2387C10.5576 12.2453 10.4918 12.2311 10.4207 12.196L8 10.7347Z" fill="#FFFBFE"/>
</svg>
