<svg width="17" height="17" viewBox="0 0 17 17" fill="none" xmlns="http://www.w3.org/2000/svg">
<path d="M8.5 0.708313C4.19546 0.708313 0.708332 4.19544 0.708332 8.49998C0.708332 11.9474 2.93887 14.8601 6.03571 15.8921C6.42529 15.9601 6.57121 15.7271 6.57121 15.5224C6.57121 15.3368 6.562 14.7234 6.562 14.071C4.60417 14.4316 4.09771 13.5936 3.94187 13.1559C3.85404 12.9313 3.47437 12.24 3.14358 12.0551C2.87087 11.9085 2.48058 11.5486 3.13367 11.5387C3.74708 11.5288 4.18554 12.1033 4.33146 12.3377C5.03271 13.5157 6.15258 13.1849 6.60096 12.9802C6.66896 12.4737 6.87367 12.133 7.0975 11.9382C5.3635 11.7434 3.55229 11.0712 3.55229 8.09056C3.55229 7.2434 3.85404 6.54215 4.35129 5.99673C4.27267 5.80194 3.99996 5.00365 4.42921 3.93194C4.42921 3.93194 5.08158 3.72794 6.57121 4.73094C7.20551 4.55502 7.86088 4.4666 8.51912 4.46815C9.18212 4.46815 9.84442 4.55527 10.467 4.73094C11.9574 3.71802 12.6097 3.93194 12.6097 3.93194C13.0383 5.00365 12.7663 5.80194 12.6884 5.99673C13.1849 6.54215 13.4867 7.23419 13.4867 8.09056C13.4867 11.0811 11.6655 11.7434 9.93154 11.9382C10.2142 12.1819 10.4578 12.6494 10.4578 13.3797C10.4578 14.4216 10.4479 15.2596 10.4479 15.5224C10.4479 15.7271 10.5938 15.9701 10.9834 15.8921C14.0611 14.8601 16.2917 11.9382 16.2917 8.49998C16.2917 4.19544 12.8052 0.708313 8.5 0.708313Z" fill="#FFFBFE"/>
</svg>
